<?xml version="1.0" standalone="no"?>
<!DOCTYPE svg PUBLIC "-//W3C//DTD SVG 20010904//EN"
 "http://www.w3.org/TR/2001/REC-SVG-20010904/DTD/svg10.dtd">
<svg version="1.0" xmlns="http://www.w3.org/2000/svg"
 width="772.000000pt" height="772.000000pt" viewBox="0 0 772.000000 772.000000"
 preserveAspectRatio="xMidYMid meet">
<metadata>
Created by potrace 1.14, written by Peter Selinger 2001-2017
</metadata>
<g transform="translate(0.000000,772.000000) scale(0.100000,-0.100000)"
fill="#000000" stroke="none">
<path d="M2799 6836 c-2 -2 -42 -6 -89 -10 -84 -6 -99 -8 -215 -27 -401 -65
-837 -235 -1165 -452 -360 -239 -678 -568 -906 -937 -212 -343 -371 -828 -411
-1253 -15 -161 -7 -598 12 -692 3 -11 7 -38 11 -60 12 -84 16 -103 40 -213 14
-62 32 -134 40 -160 8 -26 17 -58 20 -71 13 -63 103 -291 165 -419 144 -298
310 -530 549 -772 64 -64 162 -155 211 -195 13 -11 48 -40 77 -63 109 -91 341
-236 517 -323 100 -50 188 -92 196 -93 8 -1 31 -10 52 -19 54 -23 238 -82 332
-106 123 -31 223 -50 347 -66 202 -27 626 -27 793 0 17 3 41 7 55 9 209 33
496 111 640 173 19 8 44 19 55 23 158 66 474 238 505 275 7 8 17 15 22 15 15
0 217 157 305 237 98 88 533 523 533 532 0 10 -829 836 -834 831 -3 -3 -119
-118 -258 -256 -323 -320 -414 -392 -635 -504 -96 -48 -293 -125 -293 -114 0
2 -8 0 -18 -5 -28 -15 -211 -50 -299 -58 -162 -14 -335 -6 -483 23 -47 9 -95
18 -106 20 -74 14 -364 127 -364 142 0 4 740 747 1645 1652 905 905 1645 1648
1645 1651 0 9 -426 435 -527 527 -232 211 -551 410 -842 523 -42 16 -85 34
-96 39 -31 15 -252 86 -335 108 -91 25 -261 57 -350 68 -36 4 -74 9 -85 11
-29 5 -451 13 -456 9z m341 -1181 c107 -11 259 -44 367 -80 110 -37 243 -94
243 -105 0 -3 -111 -114 -247 -246 -136 -131 -675 -667 -1199 -1191 l-952
-951 -16 36 c-8 20 -29 70 -45 110 -36 86 -82 248 -97 337 -2 17 -7 44 -10 60
-20 106 -13 455 11 565 3 14 8 37 10 51 23 160 139 439 252 606 135 202 362
427 554 549 91 57 289 152 386 183 111 36 276 69 387 77 45 4 82 7 84 9 4 4
208 -4 272 -10z"/>
<path d="M6237 5274 c-1 -1 -38 -4 -82 -8 -118 -8 -171 -19 -310 -64 -151 -48
-313 -131 -435 -225 -96 -72 -257 -242 -322 -338 -58 -86 -148 -256 -148 -281
0 -8 -4 -18 -10 -24 -13 -13 -56 -183 -71 -279 -13 -87 -16 -312 -6 -385 13
-88 28 -165 38 -196 5 -17 11 -40 13 -50 7 -35 53 -149 90 -222 143 -283 374
-512 663 -656 130 -65 258 -104 428 -132 22 -3 256 -8 520 -9 264 -2 483 -4
487 -4 10 -1 -35 -103 -75 -170 -72 -121 -232 -263 -371 -330 -124 -60 -198
-73 -426 -78 -113 -2 -210 -5 -215 -7 -7 -2 -10 -103 -10 -282 l0 -279 200 0
c236 0 310 7 434 40 256 69 462 186 642 365 106 105 177 190 220 266 102 179
163 332 195 489 2 11 6 31 9 45 14 72 17 191 17 800 0 598 -3 763 -17 810 -2
8 -7 29 -10 45 -10 62 -15 81 -41 159 -41 128 -136 313 -209 411 -109 145
-254 280 -400 372 -136 86 -369 175 -515 197 -92 14 -274 27 -283 20z m173
-579 c105 -14 249 -70 360 -140 66 -41 209 -192 253 -266 20 -35 51 -99 67
-142 57 -146 59 -169 60 -695 l0 -483 -477 2 c-499 1 -549 4 -681 48 -269 88
-485 327 -554 611 -27 112 -29 293 -4 405 45 202 189 411 361 521 190 121 401
169 615 139z"/>
</g>
</svg>
